<svg xmlns="http://www.w3.org/2000/svg" style="border: 0 !important; clip: rect(0 0 0 0) !important; height: 1px !important; margin: -1px !important; overflow: hidden !important; padding: 0 !important; position: absolute !important; width: 1px !important;" class="root-svg-symbols-element">
    <symbol id="inst-icon" viewBox="0 0 14 14">
      <path fill="currentColor" d="M7 .6c1.737 0 1.955.008 2.637.039.682.03 1.147.139 1.555.297.421.163.777.382 1.133.738s.575.713.739 1.134c.157.407.265.872.297 1.553.031.683.039.9.039 2.64 0 1.737-.008 1.955-.039 2.637-.032.682-.14 1.147-.297 1.554-.164.42-.383.778-.739 1.134a3.13 3.13 0 0 1-1.133.738c-.407.158-.872.266-1.554.298-.682.03-.9.038-2.638.038s-1.956-.007-2.639-.038c-.681-.032-1.146-.14-1.554-.298a3.133 3.133 0 0 1-1.133-.738 3.137 3.137 0 0 1-.738-1.134C.778 10.785.67 10.32.639 9.638.608 8.956.6 8.738.6 7s.008-1.956.039-2.639c.03-.681.138-1.146.297-1.553.164-.421.383-.778.739-1.134A3.134 3.134 0 0 1 2.808.936C3.215.778 3.68.67 4.362.639 5.044.608 5.262.6 7 .6zm-.574 1.152c-1.192.001-1.421.01-2.012.036-.624.028-.962.132-1.188.22a1.986 1.986 0 0 0-.736.48 1.983 1.983 0 0 0-.479.735c-.088.226-.192.565-.22 1.189-.031.674-.037.876-.037 2.585 0 1.71.006 1.912.037 2.586.028.624.132.963.22 1.188.116.3.255.512.479.736.224.224.437.363.736.479.226.087.564.192 1.188.22.675.031.878.038 2.587.038 1.708 0 1.911-.007 2.586-.038.624-.028.963-.132 1.188-.22a1.98 1.98 0 0 0 .735-.479 1.98 1.98 0 0 0 .48-.735c.087-.225.191-.564.22-1.188.03-.675.037-.877.037-2.585s-.007-1.911-.037-2.586c-.029-.624-.133-.962-.22-1.188a1.985 1.985 0 0 0-.48-.736 1.98 1.98 0 0 0-.735-.478c-.226-.088-.564-.192-1.188-.22-.675-.032-.878-.038-2.586-.038h-.575zm4.759 1.832a.768.768 0 1 1-1.537 0 .768.768 0 0 1 1.537 0zM10.287 7a3.286 3.286 0 1 1-6.572 0 3.286 3.286 0 0 1 6.572 0zm-5.42 0a2.133 2.133 0 1 0 4.267 0 2.133 2.133 0 0 0-4.267 0z"/>
    </symbol>
    <symbol id="lexus-logo" viewBox="0 0 90 16">
      <path d="M86.254 7.56c1.702 0 3.746.293 3.746 2.514 0 2.22-2.773 2.35-3.778 2.35h-20.35c-.745 0-3.437-.522-3.437-3.297V4.833l-4.815 3.25 5.853 4.342H59.08L55.3 9.617l-4.167 2.808H28.839c-1.038 0-3.178-.604-3.178-3.674V4.294h2.789v4.703c0 .636.178 1.828 1.783 1.828l6.333-.003a5.13 5.13 0 0 1 1.877-2.283H36.2c.276-1.975 2.221-4.245 5.464-4.245h10.88l3.728 2.776 4.136-2.776h5.075v4.703c0 .636.178 1.828 1.783 1.828h5.318v-6.53h2.79v6.53h9.47c1.085-.033 1.717-.098 1.717-.85 0-.75-.73-.816-1.037-.816h-9.08c0-2.383 1.33-4.865 4.572-4.865h8.14v1.6h-7.783c-1.054 0-1.637.833-1.719 1.665zM53.97 8.62l-4.897-3.656v.93h-7.07c-1.053 0-1.961.833-2.042 1.665h8.464v1.6h-6.194c-1.054 0-1.962.833-2.043 1.666H50.68zM0 8c.003-4.842 4.952-8 11.06-8 1.333 0 2.612.148 3.795.431.83.26.228.94.013 1.267-.841.894-4.338 5.693-4.977 6.845-.44.598-.9 1.833.29 1.833h9.28c.476 0 .727-.37.856-.808A5.543 5.543 0 0 0 20.544 8c0-3.102-1.905-5.265-4.787-6.335l.537-.808C19.762 2.101 22.118 4.628 22.12 8a6.003 6.003 0 0 1-1.172 3.59c-.215.293-.365.574-.96.574H8.365C5.599 12.005 5.572 9.745 6.7 7.91c.572-.93 3.708-5.227 4.809-6.562.202-.295-.068-.451-.405-.452-5.3 0-9.439 2.579-9.439 7.104 0 3.924 4.138 7.104 9.44 7.104 2.84 0 5.348-.914 7.063-2.366l1.814-.008C17.97 14.713 14.723 16 11.06 16 4.952 16-.003 12.888 0 8z"/>
    </symbol>
    <symbol id="logo" viewBox="0 0 150 24">
      <path fill="#fff" d="M144.441 22.627a1.796 1.796 0 0 1-1.318-.513 1.881 1.881 0 0 1 0-2.576 1.789 1.789 0 0 1 1.307-.546c.5-.015.988.156 1.367.48l-.48.584a1.39 1.39 0 0 0-.909-.354.904.904 0 0 0-.705.327 1.178 1.178 0 0 0 0 1.567.973.973 0 0 0 .755.316c.257.01.51-.065.722-.213v-.496h-.772v-.65h1.51v1.518a2.224 2.224 0 0 1-1.488.545zm-6.458-3.57h.71l1.641 2.157v-2.156h.755v3.498h-.65l-1.685-2.221v2.221h-.76zm-2.477 0h.765v3.5h-.765zm-4.808 0h.706l1.64 2.157v-2.156h.755v3.498h-.65l-1.685-2.221v2.221h-.754zm-3.15 3.554a1.512 1.512 0 0 1-1.093-.388 1.6 1.6 0 0 1-.405-1.168v-1.997h.766v1.98a.954.954 0 0 0 .202.645.684.684 0 0 0 .547.218.734.734 0 0 0 .547-.207.926.926 0 0 0 .197-.633v-2.003h.765v1.975a1.581 1.581 0 0 1-.415 1.185 1.504 1.504 0 0 1-1.1.404zm-4.708-2.844h-1.055v-.71h2.882v.71h-1.061v2.79h-.766zM117 20.821a.619.619 0 0 0 .448-.153.509.509 0 0 0 .159-.388.475.475 0 0 0-.17-.393.69.69 0 0 0-.454-.136h-.59v1.091zm-1.351-1.752h1.422c.358-.018.708.103.979.338a1.158 1.158 0 0 1 .355.879 1.09 1.09 0 0 1-.416.922 1.511 1.511 0 0 1-.99.311h-.585v1.048h-.765zm-2.478 0h.766v3.498h-.765zm-4.659 0h.766v1.386h1.41v-1.386h.766v3.498h-.765v-1.403h-1.411v1.403h-.766zm-3.58 3.42a1.722 1.722 0 0 1-.581-.408 1.81 1.81 0 0 1 1.312-3.094 1.857 1.857 0 0 1 1.345.545l-.459.546a1.303 1.303 0 0 0-.891-.393.937.937 0 0 0-.728.322 1.09 1.09 0 0 0-.284.78c-.01.285.093.56.284.77a.923.923 0 0 0 .728.328c.345-.015.672-.162.913-.41l.487.546a1.85 1.85 0 0 1-1.436.606 1.725 1.725 0 0 1-.69-.138zm-5.957.138a2.146 2.146 0 0 1-1.477-.546l.454-.545c.286.26.654.41 1.04.425.333 0 .502-.114.502-.343a.282.282 0 0 0-.136-.24 2.234 2.234 0 0 0-.547-.203 2.386 2.386 0 0 1-.837-.343.883.883 0 0 1-.312-.737.943.943 0 0 1 .34-.764 1.32 1.32 0 0 1 .875-.29c.47-.008.929.148 1.296.442l-.4.584a1.642 1.642 0 0 0-.907-.349.548.548 0 0 0-.329.093.261.261 0 0 0-.114.224.29.29 0 0 0 .147.262c.193.088.394.154.602.196.294.064.572.188.815.366a.882.882 0 0 1 .29.693.98.98 0 0 1-.361.808 1.418 1.418 0 0 1-.952.256zm-4.375 0a1.512 1.512 0 0 1-1.094-.387 1.6 1.6 0 0 1-.404-1.168v-1.998h.765v1.981a.954.954 0 0 0 .197.644.7.7 0 0 0 .547.219.718.718 0 0 0 .547-.208.926.926 0 0 0 .202-.633v-2.003h.766v1.976a1.602 1.602 0 0 1-.416 1.184 1.504 1.504 0 0 1-1.132.388zm-4.922-1.834l-1.165-1.719h.886l.733 1.135.733-1.135h.87l-1.165 1.708 1.214 1.79h-.892l-.782-1.2-.787 1.2h-.87zm-5.124-1.719h2.625v.688h-1.865v.71h1.64v.682h-1.64v.731h1.887v.688h-2.647zm-3.92 0h.765v2.8h1.733v.699h-2.537zm-11.469 2.025l-.465-1.135-.459 1.135zm-.804-2.058h.706l1.487 3.52h-.842l-.317-.785h-1.471l-.317.786h-.782zm-4.003.732h-1.06v-.71h2.881v.71h-1.055v2.789h-.766zm-4.04 2.849a1.786 1.786 0 0 1-1.324-.546 1.832 1.832 0 0 1 0-2.56 1.822 1.822 0 0 1 1.329-.546 1.803 1.803 0 0 1 1.323.546 1.838 1.838 0 0 1-.618 2.977c-.232.094-.482.14-.733.134zm0-.71a.985.985 0 0 0 .754-.322 1.09 1.09 0 0 0 .29-.775 1.09 1.09 0 0 0-.64-1.022.992.992 0 0 0-.416-.08.975.975 0 0 0-.75.322 1.09 1.09 0 0 0-.294.78 1.056 1.056 0 0 0 .3.77.968.968 0 0 0 .744.333zm-4.824-.726l-1.335-2.117h.892l.831 1.402.848-1.402h.87l-1.34 2.106v1.392h-.766zm-4.047.732a1.003 1.003 0 0 0 .755-.322 1.09 1.09 0 0 0 .284-.775 1.09 1.09 0 0 0-.29-.775.995.995 0 0 0-.76-.328.964.964 0 0 0-.75.322 1.09 1.09 0 0 0-.295.78 1.09 1.09 0 0 0 .632 1.014.991.991 0 0 0 .408.084zm-.72.575a1.832 1.832 0 0 1-.604-2.971 1.927 1.927 0 0 1 2.653 0 1.757 1.757 0 0 1 .52 1.282 1.733 1.733 0 0 1-.548 1.277 1.8 1.8 0 0 1-1.314.547 1.786 1.786 0 0 1-.706-.135zm-4.076-2.715H45.59v-.71h2.882v.71h-1.055v2.79h-.766zm30.695 2.767h-.76l-.393-.365c-.301.289-.704.447-1.121.442a1.462 1.462 0 0 1-.957-.295.955.955 0 0 1-.356-.775 1.058 1.058 0 0 1 .656-.96 1.442 1.442 0 0 1-.377-.383.753.753 0 0 1-.104-.404.72.72 0 0 1 .312-.595c.254-.166.555-.246.858-.229.283-.016.563.055.804.202a.629.629 0 0 1 .296.546c0 .426-.257.72-.772.89l.7.715c.028 0 .115-.268.088-.852h.75v.251a1.636 1.636 0 0 1-.39.994l.766.764zm-1.892-2.729a.35.35 0 0 0-.388-.398.356.356 0 0 0-.263.104.345.345 0 0 0-.109.278c0 .175.142.366.432.546a.601.601 0 0 0 .3-.535zm.389 2.036l-1.067-.982a.688.688 0 0 0-.235.546.61.61 0 0 0 .197.474.683.683 0 0 0 .498.186.816.816 0 0 0 .58-.23z"/><path fill="#cf142b" d="M101.83 15.24V3.172h5.737V15.24zm12.654-12.068h5.732V15.24h-5.731v-4.689h-6.732l1.684-2.369h5.048zm8.62 0h5.736V15.24h-5.737zm-66.98 2.642v9.404h-5.737V5.814H41.5l1.892-2.664h26.19v9.405h10.286l-1.892 2.663H63.845V5.814zM82.235 9.18v.022zm0 .011c.004-.767.128-1.53.366-2.26.222-.7.56-1.36 1.001-1.948a4.235 4.235 0 0 1 3.45-1.812h13.29L98.45 5.814h-8.24a2.19 2.19 0 0 0-1.816.988 4.214 4.214 0 0 0 0 4.765 2.187 2.187 0 0 0 1.815.988h10.128l-1.887 2.663H87.054a4.245 4.245 0 0 1-3.45-1.812 6.622 6.622 0 0 1-1.002-1.949 7.432 7.432 0 0 1-.366-2.265zm64.442-5.982a3.044 3.044 0 0 1 2.379 1.092c.302.351.537.754.695 1.19a3.98 3.98 0 0 1 0 2.783 3.828 3.828 0 0 1-.695 1.19 3.045 3.045 0 0 1-2.286 1.092h-9.094l1.679-2.37h4.375a.73.73 0 0 0 .601-.327 1.394 1.394 0 0 0 0-1.566.72.72 0 0 0-.601-.328h-6.267v9.28h-5.737V3.176z"/><path fill="#cf142b" d="M19.875 23.778C9.173 23.778.5 18.582.5 12.174.5 5.766 9.173.57 19.875.57c10.703 0 19.376 5.19 19.376 11.604 0 6.414-8.673 11.604-19.376 11.604zm-6.808-12.09c1.455-2.701 2.27-4.11-.946-4.11H5.24a7.507 7.507 0 0 0-1.64 4.596c0 2.991 1.963 5.693 5.113 7.598zm23.083.486c0-5.77-7.284-10.447-16.275-10.447A21.874 21.874 0 0 0 8.72 4.565h8.362c3.363 0 4.676 1.807 2.784 5.317l-3.418 6.342-1.914 3.553H8.725a21.836 21.836 0 0 0 11.15 2.839c8.99 0 16.275-4.672 16.275-10.442z"/><path fill="#fff" d="M25.221 4.57h5.824l-4.375 8.095c-1.454 2.696-2.27 4.11.947 4.11h6.88a12.375 12.375 0 0 1-3.468 3.007h-8.345c-3.363 0-4.676-1.807-2.784-5.316l3.418-6.343z"/>
    </symbol>
    <symbol id="menu-close" viewBox="0 0 513 512">
      <path d="M284.286 256.002L506.143 34.144C513.954 26.333 513.954 13.669 506.143 5.85901C498.332 -1.95099 485.668 -1.95199 477.858 5.85901L256 227.717L34.143 5.85901C26.332 -1.95199 13.668 -1.95199 5.858 5.85901C-1.952 13.67 -1.953 26.334 5.858 34.144L227.715 256.001L5.858 477.859C-1.953 485.67 -1.953 498.334 5.858 506.144C9.763 510.049 14.882 512.001 20.001 512.001C25.12 512.001 30.238 510.049 34.144 506.144L256 284.287L477.857 506.144C481.762 510.049 486.881 512.001 492 512.001C497.119 512.001 502.237 510.049 506.143 506.144C513.954 498.333 513.954 485.669 506.143 477.859L284.286 256.002Z" fill="currentColor"/>
    </symbol>
    <symbol id="menu-icon" viewBox="0 0 512 360">
      <path d="M492 160H20C8.954 160 0 168.954 0 180C0 191.046 8.954 200 20 200H492C503.046 200 512 191.046 512 180C512 168.954 503.046 160 492 160Z" fill="currentColor"/><path d="M492 0H20C8.954 0 0 8.954 0 20C0 31.046 8.954 40 20 40H492C503.046 40 512 31.046 512 20C512 8.954 503.046 0 492 0Z" fill="currentColor"/><path d="M492 320H20C8.954 320 0 328.954 0 340C0 351.046 8.954 360 20 360H492C503.046 360 512 351.046 512 340C512 328.954 503.046 320 492 320Z" fill="currentColor"/>
    </symbol>
    <symbol id="price-arrow" viewBox="0 0 8 12">
      <path fill="currentColor" d="M.914.414a.833.833 0 0 0 0 1.179l4.41 4.41-4.41 4.411a.833.833 0 1 0 1.179 1.179l5-5a.833.833 0 0 0 0-1.179l-5-5a.833.833 0 0 0-1.179 0z"/>
    </symbol>
    <symbol id="quote-icon" viewBox="0 0 176 149">
      <path fill="#fff" d="M175.228 23.271C148.983 36.2 135.86 51.391 135.86 68.844c11.187 1.293 20.437 5.871 27.751 13.736 7.315 7.865 10.972 16.969 10.972 27.312 0 10.989-3.55 20.254-10.649 27.796-7.099 7.541-16.027 11.312-26.783 11.312-12.047 0-22.48-4.902-31.3-14.706-8.82-9.804-13.23-21.709-13.23-35.715 0-42.017 23.448-74.877 70.345-98.579zm-92.62 0c-26.46 12.929-39.69 28.12-39.69 45.573 11.4 1.293 20.759 5.871 28.073 13.736s10.971 16.969 10.971 27.312c0 10.989-3.603 20.254-10.81 27.796C63.946 145.229 54.964 149 44.208 149c-12.047 0-22.427-4.902-31.14-14.706C4.357 124.49 0 112.585 0 98.579 0 56.562 23.34 23.702 70.023 0z" opacity=".05"/>
    </symbol>
    <symbol id="toyota-logo" viewBox="0 0 1001 165">
      <path fill-rule="evenodd" clip-rule="evenodd" d="M118.985 156.466C105.753 148.178 96.0051 119.576 96.0051 85.593C96.0051 84.346 96.0131 83.117 96.0411 81.888L96.0571 81.906C59.2541 76.122 32.6631 60.276 31.9821 41.538L31.8741 41.754C22.8691 52.945 17.7291 65.884 17.7291 79.671C17.7291 120.24 62.2621 153.481 118.747 156.421L118.985 156.466ZM0.714111 82.631C0.714111 37.237 57.2041 0.432007 126.893 0.432007C196.58 0.432007 253.072 37.237 253.072 82.631C253.072 128.025 196.579 164.831 126.893 164.831C57.2041 164.831 0.714111 128.024 0.714111 82.631ZM126.893 12.295C140.346 12.295 151.789 32.702 156.028 61.176L156.044 61.133C182.216 57.059 200.541 47.661 200.541 36.725C200.541 22.047 167.564 10.162 126.893 10.162C86.2191 10.162 53.2451 22.048 53.2451 36.725C53.2451 47.661 71.5671 57.059 97.7421 61.133L97.7581 61.176C101.997 32.703 113.443 12.295 126.893 12.295ZM135.037 156.42C191.522 153.481 236.061 120.239 236.061 79.67C236.061 65.884 230.915 52.945 221.911 41.753L221.801 41.537C221.12 60.275 194.536 76.121 157.729 81.905L157.745 81.887C157.77 83.116 157.783 84.345 157.783 85.592C157.783 119.575 148.028 148.177 134.804 156.465L135.037 156.42ZM126.893 63.292C132.92 63.292 138.779 63.035 144.385 62.541L144.377 62.55C141.587 44.297 134.811 31.415 126.893 31.415C118.975 31.415 112.2 44.297 109.406 62.55L109.399 62.541C115.005 63.035 120.866 63.292 126.893 63.292ZM126.893 130.886C137.021 130.886 145.283 109.809 145.724 83.373L145.778 83.392C139.673 83.957 133.358 84.252 126.894 84.252C120.424 84.252 114.115 83.957 108.01 83.392L108.067 83.373C108.501 109.808 116.761 130.886 126.893 130.886Z" fill="currentColor"/><path fill-rule="evenodd" clip-rule="evenodd" d="M644.563 82.631C644.563 47.935 672.696 19.807 707.384 19.807C742.09 19.807 770.219 47.934 770.219 82.631C770.219 117.331 742.09 145.455 707.384 145.455C672.696 145.455 644.563 117.331 644.563 82.631ZM707.384 122.418C726.763 122.418 742.471 104.603 742.471 82.631C742.471 60.66 726.763 42.843 707.384 42.843C688.019 42.843 672.314 60.66 672.314 82.631C672.314 104.602 688.019 122.418 707.384 122.418Z" fill="currentColor"/><path fill-rule="evenodd" clip-rule="evenodd" d="M841.502 45.983V142.603H815.033V45.983H815.12H778.102V24.139H878.427V45.983H841.589H841.502Z" fill="currentColor"/><path fill-rule="evenodd" clip-rule="evenodd" d="M910.45 115.949L910.424 115.974L900.27 142.603H869.358L918.231 24.138H934.71H951.173L1000.05 142.603H969.133L958.978 115.974L958.953 115.949H934.711H910.45V115.949ZM934.709 95.955H951.362L951.352 95.96L934.822 52.601H934.59L918.05 95.96L918.044 95.955H934.709Z" fill="currentColor"/><path fill-rule="evenodd" clip-rule="evenodd" d="M353.558 45.983V142.603H327.087V45.983H327.177H290.156V24.139H390.485V45.983H353.65H353.558Z" fill="currentColor"/><path fill-rule="evenodd" clip-rule="evenodd" d="M397.255 82.631C397.255 47.935 425.387 19.807 460.087 19.807C494.785 19.807 522.914 47.934 522.914 82.631C522.914 117.331 494.785 145.455 460.087 145.455C425.387 145.455 397.255 117.331 397.255 82.631ZM460.087 122.418C479.456 122.418 495.165 104.603 495.165 82.631C495.165 60.66 479.457 42.843 460.087 42.843C440.715 42.843 425.006 60.66 425.006 82.631C425.006 104.602 440.715 122.418 460.087 122.418Z" fill="currentColor"/><path fill-rule="evenodd" clip-rule="evenodd" d="M583.738 142.603H597.16V98.174V97.62L643.339 24.139H612.432L583.738 73.932L555.048 24.139H524.131L570.315 97.62V98.174V142.603H583.738Z" fill="currentColor"/>
    </symbol>
    <symbol id="video-arrow" viewBox="0 0 22 14">
      <path fill="currentColor" d="M14.293 1.707A1 1 0 0 1 15.707.293l6 6a1 1 0 0 1 0 1.414l-6 6a1 1 0 0 1-1.414-1.414L18.586 8H1.011A1.006 1.006 0 0 1 0 7c0-.552.453-1 1.011-1h17.575z"/>
    </symbol>
    <symbol id="vk-icon" viewBox="0 0 12 12">
      <path fill="currentColor" d="M7.84 0C11.2 0 12 .8 12 4.16v3.68C12 11.2 11.2 12 7.84 12H4.16C.8 12 0 11.2 0 7.84V4.16C0 .8.8 0 4.16 0zm1.988 4.134c.056-.185 0-.322-.265-.322h-.875a.378.378 0 0 0-.38.248s-.445 1.085-1.076 1.789c-.204.204-.296.269-.408.269-.055 0-.136-.065-.136-.25V4.134c0-.222-.064-.322-.25-.322H5.063c-.139 0-.222.104-.222.202 0 .21.315.26.347.852v1.289c0 .282-.05.334-.162.334-.296 0-1.018-1.09-1.446-2.336-.084-.243-.168-.34-.392-.34h-.875c-.25 0-.3.117-.3.247 0 .232.297 1.381 1.382 2.901C4.118 8 5.136 8.563 6.063 8.563c.557 0 .625-.126.625-.34v-.785c0-.25.053-.3.23-.3.129 0 .351.064.87.565.594.593.692.86 1.025.86h.875c.25 0 .375-.126.303-.372-.079-.246-.362-.603-.738-1.026-.204-.24-.51-.5-.602-.63-.13-.167-.093-.24 0-.39 0 0 1.066-1.501 1.177-2.01z"/>
    </symbol>
    <symbol id="warranty-icon-1" viewBox="0 0 32 31">
      <path fill="currentColor" d="M17.474.622c.55.088 1.07.299 1.537.672.765.612 1.129 1.383 1.41 2.51.072.288.197.624.353.95.358.152.707.32 1.048.506.337-.083.66-.193.918-.314 1.816-.845 3.34-.8 4.586.545.106.114.17.19.306.358l.81 1c.217.268.31.39.447.62.89 1.48.543 2.858-.582 4.352a5.295 5.295 0 0 0-.536.914c.1.363.184.732.25 1.104.287.23.592.43.86.568 1.034.528 1.704 1.056 2.128 1.939.26.539.347 1.093.31 1.648-.021.294-.053.457-.137.824l-.29 1.253a4.473 4.473 0 0 1-.238.8c-.21.515-.531.975-1 1.346-.768.607-1.602.789-2.762.81-.294.005-.645.05-.994.127-.227.313-.468.616-.724.906.004.353.04.7.1.983.24 1.135.251 1.988-.168 2.873-.256.54-.631.958-1.087 1.278-.24.17-.388.247-.726.412l-1.155.564c-.338.165-.49.232-.772.318-.533.162-1.092.2-1.676.07-.955-.215-1.62-.749-2.368-1.637a5.279 5.279 0 0 0-.76-.721 12.308 12.308 0 0 1-1.128 0c-.293.23-.563.486-.76.72-.747.89-1.412 1.423-2.368 1.638a3.235 3.235 0 0 1-1.675-.07 4.477 4.477 0 0 1-.772-.318l-1.156-.564a8.817 8.817 0 0 1-.238-.119c-1.686-.878-2.18-2.375-1.742-4.444.06-.284.095-.63.1-.983a12.26 12.26 0 0 1-.725-.906 5.232 5.232 0 0 0-.993-.127c-1.16-.021-1.994-.203-2.762-.81-.47-.371-.791-.83-1-1.346a4.475 4.475 0 0 1-.239-.8l-.29-1.253c-.089-.388-.122-.561-.139-.875-.032-.59.081-1.175.38-1.73.436-.81 1.081-1.306 2.06-1.806.269-.137.573-.338.86-.568.066-.372.15-.74.25-1.104a5.288 5.288 0 0 0-.536-.914c-1.124-1.494-1.471-2.872-.582-4.353.138-.228.23-.35.448-.62l.81-.999c.136-.169.2-.244.305-.358 1.247-1.345 2.77-1.39 4.586-.545.258.12.582.231.918.314.341-.185.69-.354 1.048-.506.156-.326.28-.662.353-.95.282-1.127.646-1.898 1.41-2.51a3.234 3.234 0 0 1 1.537-.672c.233-.037.386-.048.63-.051l1.49-.001c.375 0 .542.006.832.052zm-2.119 2.52c-.643 0-.964 0-1.285 1.285a8.162 8.162 0 0 1-1.075 2.406c-.826.27-1.603.65-2.314 1.12a8.165 8.165 0 0 1-2.51-.675c-1.201-.56-1.404-.31-1.808.19l-.81.999c-.404.5-.606.75.19 1.808a8.154 8.154 0 0 1 1.205 2.386 9.59 9.59 0 0 0-.551 2.437 8.158 8.158 0 0 1-2.113 1.6c-1.18.602-1.108.915-.964 1.541l.29 1.253c.144.627.216.94 1.541.964a8.163 8.163 0 0 1 2.576.502 9.683 9.683 0 0 0 1.603 2.006c.121.923.06 1.898-.092 2.612-.274 1.296.015 1.437.592 1.72l1.156.563c.578.282.867.422 1.72-.592a8.154 8.154 0 0 1 2.044-1.706 9.736 9.736 0 0 0 2.496 0 8.157 8.157 0 0 1 2.045 1.706c.853 1.014 1.142.874 1.72.592l1.155-.564c.578-.282.867-.423.592-1.72a8.164 8.164 0 0 1-.091-2.61 9.684 9.684 0 0 0 1.603-2.007 8.163 8.163 0 0 1 2.575-.502c1.325-.024 1.397-.337 1.542-.964l.29-1.253c.144-.626.216-.94-.964-1.542a8.156 8.156 0 0 1-2.113-1.6 9.594 9.594 0 0 0-.552-2.435 8.153 8.153 0 0 1 1.205-2.387c.797-1.059.594-1.309.19-1.808l-.81-1c-.404-.499-.606-.749-1.808-.19a8.165 8.165 0 0 1-2.51.676 9.604 9.604 0 0 0-2.314-1.12 8.16 8.16 0 0 1-1.074-2.406c-.303-1.21-.605-1.281-1.176-1.285zm.643 7.07a5.786 5.786 0 1 1 0 11.572 5.786 5.786 0 0 1 0-11.571zm0 2.572a3.214 3.214 0 1 0 0 6.429 3.214 3.214 0 0 0 0-6.429z"/>
    </symbol>
    <symbol id="warranty-icon-2" viewBox="0 0 30 32">
      <path fill="currentColor" d="M14 .57c8.521 0 15.429 6.908 15.429 15.429 0 8.52-6.908 15.428-15.429 15.428a15.381 15.381 0 0 1-10.911-4.52 1.286 1.286 0 1 1 1.818-1.819A12.81 12.81 0 0 0 14 28.856c7.1 0 12.857-5.757 12.857-12.857C26.857 8.898 21.101 3.14 14 3.14A12.824 12.824 0 0 0 4.817 7h2.112a1.286 1.286 0 0 1 .15 2.562l-.15.009H1.786c-.66 0-1.203-.496-1.277-1.136L.5 8.284V3.141a1.286 1.286 0 0 1 2.563-.15l.008.15v1.966A15.394 15.394 0 0 1 14 .57zm0 7.714c.66 0 1.203.497 1.277 1.136l.009.15v5.896l3.48 3.48a1.286 1.286 0 0 1-1.697 1.926l-.121-.107-3.857-3.857a1.286 1.286 0 0 1-.366-.74l-.01-.17V9.57c0-.71.575-1.286 1.285-1.286z"/>
    </symbol>
    <symbol id="warranty-icon-3" viewBox="0 0 26 33">
      <path fill="currentColor" d="M12.334-.072a4.6 4.6 0 0 1 1.327 0c.444.063.814.163 1.666.448l8.769 2.922a2.571 2.571 0 0 1 1.758 2.44v11.93c0 6.165-3.7 10.887-10.874 14.069l-.474.206c-.964.41-2.054.41-3.018 0C4.007 28.763.14 23.972.14 17.668V5.738c0-1.107.708-2.09 1.758-2.44l9.01-3.002c.686-.224 1.026-.31 1.426-.368zm.963 2.546a2.03 2.03 0 0 0-.6 0c-.257.036-.499.102-1.217.341L2.711 5.738v11.93c0 5.164 3.178 9.1 9.783 11.908.322.137.685.137.997.004l.455-.198c6.304-2.796 9.337-6.666 9.337-11.714V5.738l-8.97-2.99c-.44-.144-.67-.21-.86-.248zm6.652 9.014c.464.463.5 1.193.107 1.697l-.107.121-7.714 7.714c-.464.464-1.193.5-1.697.107l-.121-.107-4.179-4.178a1.286 1.286 0 0 1 1.697-1.925l.121.106 3.27 3.269 6.805-6.804a1.286 1.286 0 0 1 1.818 0z"/>
    </symbol>
    <symbol id="warranty-icon-4" viewBox="0 0 26 26">
      <path fill="currentColor" d="M21.364 2.069v1.157A12.818 12.818 0 0 0 13.003.14C6.38.14.929 5.14.218 11.57a1.286 1.286 0 0 0 2.557.283A10.29 10.29 0 0 1 13.003 2.71c2.61 0 4.992.97 6.807 2.572h-1.662a1.286 1.286 0 1 0 0 2.571h4.502c.71 0 1.287-.575 1.287-1.285v-4.5a1.286 1.286 0 0 0-2.573 0zm1.867 12.073a10.29 10.29 0 0 1-10.228 9.14c-2.61 0-4.992-.97-6.807-2.57h1.661a1.286 1.286 0 1 0 0-2.572H3.355c-.71 0-1.286.576-1.286 1.286v4.5a1.286 1.286 0 0 0 2.573 0v-1.158a12.818 12.818 0 0 0 8.36 3.086c6.623 0 12.075-5 12.786-11.43a1.286 1.286 0 0 0-2.557-.282z"/>
    </symbol>
    <symbol id="youtube-icon" viewBox="0 0 14 10">
      <path fill="currentColor" d="M12 .875c.552.15.985.596 1.132 1.162C13.4 3.062 13.4 5.2 13.4 5.2s0 2.138-.268 3.163a1.625 1.625 0 0 1-1.131 1.162C11.003 9.8 7 9.8 7 9.8s-4.003 0-5-.275A1.625 1.625 0 0 1 .866 8.363C.6 7.338.6 5.2.6 5.2s0-2.138.267-3.163A1.625 1.625 0 0 1 2 .875C2.997.6 7 .6 7 .6s4.003 0 5 .275zM5.8 3.4v4l3.2-2z"/>
    </symbol></svg>