<svg xmlns="http://www.w3.org/2000/svg" width="176" height="149" viewBox="0 0 176 149"><path fill="#fff" d="M175.228 23.271C148.983 36.2 135.86 51.391 135.86 68.844c11.187 1.293 20.437 5.871 27.751 13.736 7.315 7.865 10.972 16.969 10.972 27.312 0 10.989-3.55 20.254-10.649 27.796-7.099 7.541-16.027 11.312-26.783 11.312-12.047 0-22.48-4.902-31.3-14.706-8.82-9.804-13.23-21.709-13.23-35.715 0-42.017 23.448-74.877 70.345-98.579zm-92.62 0c-26.46 12.929-39.69 28.12-39.69 45.573 11.4 1.293 20.759 5.871 28.073 13.736s10.971 16.969 10.971 27.312c0 10.989-3.603 20.254-10.81 27.796C63.946 145.229 54.964 149 44.208 149c-12.047 0-22.427-4.902-31.14-14.706C4.357 124.49 0 112.585 0 98.579 0 56.562 23.34 23.702 70.023 0z" opacity=".05"/></svg>