<svg xmlns="http://www.w3.org/2000/svg" width="32" height="31" viewBox="0 0 32 31"><path fill="currentColor" d="M17.474.622c.55.088 1.07.299 1.537.672.765.612 1.129 1.383 1.41 2.51.072.288.197.624.353.95.358.152.707.32 1.048.506.337-.083.66-.193.918-.314 1.816-.845 3.34-.8 4.586.545.106.114.17.19.306.358l.81 1c.217.268.31.39.447.62.89 1.48.543 2.858-.582 4.352a5.295 5.295 0 0 0-.536.914c.1.363.184.732.25 1.104.287.23.592.43.86.568 1.034.528 1.704 1.056 2.128 1.939.26.539.347 1.093.31 1.648-.021.294-.053.457-.137.824l-.29 1.253a4.473 4.473 0 0 1-.238.8c-.21.515-.531.975-1 1.346-.768.607-1.602.789-2.762.81-.294.005-.645.05-.994.127-.227.313-.468.616-.724.906.004.353.04.7.1.983.24 1.135.251 1.988-.168 2.873-.256.54-.631.958-1.087 1.278-.24.17-.388.247-.726.412l-1.155.564c-.338.165-.49.232-.772.318-.533.162-1.092.2-1.676.07-.955-.215-1.62-.749-2.368-1.637a5.279 5.279 0 0 0-.76-.721 12.308 12.308 0 0 1-1.128 0c-.293.23-.563.486-.76.72-.747.89-1.412 1.423-2.368 1.638a3.235 3.235 0 0 1-1.675-.07 4.477 4.477 0 0 1-.772-.318l-1.156-.564a8.817 8.817 0 0 1-.238-.119c-1.686-.878-2.18-2.375-1.742-4.444.06-.284.095-.63.1-.983a12.26 12.26 0 0 1-.725-.906 5.232 5.232 0 0 0-.993-.127c-1.16-.021-1.994-.203-2.762-.81-.47-.371-.791-.83-1-1.346a4.475 4.475 0 0 1-.239-.8l-.29-1.253c-.089-.388-.122-.561-.139-.875-.032-.59.081-1.175.38-1.73.436-.81 1.081-1.306 2.06-1.806.269-.137.573-.338.86-.568.066-.372.15-.74.25-1.104a5.288 5.288 0 0 0-.536-.914c-1.124-1.494-1.471-2.872-.582-4.353.138-.228.23-.35.448-.62l.81-.999c.136-.169.2-.244.305-.358 1.247-1.345 2.77-1.39 4.586-.545.258.12.582.231.918.314.341-.185.69-.354 1.048-.506.156-.326.28-.662.353-.95.282-1.127.646-1.898 1.41-2.51a3.234 3.234 0 0 1 1.537-.672c.233-.037.386-.048.63-.051l1.49-.001c.375 0 .542.006.832.052zm-2.119 2.52c-.643 0-.964 0-1.285 1.285a8.162 8.162 0 0 1-1.075 2.406c-.826.27-1.603.65-2.314 1.12a8.165 8.165 0 0 1-2.51-.675c-1.201-.56-1.404-.31-1.808.19l-.81.999c-.404.5-.606.75.19 1.808a8.154 8.154 0 0 1 1.205 2.386 9.59 9.59 0 0 0-.551 2.437 8.158 8.158 0 0 1-2.113 1.6c-1.18.602-1.108.915-.964 1.541l.29 1.253c.144.627.216.94 1.541.964a8.163 8.163 0 0 1 2.576.502 9.683 9.683 0 0 0 1.603 2.006c.121.923.06 1.898-.092 2.612-.274 1.296.015 1.437.592 1.72l1.156.563c.578.282.867.422 1.72-.592a8.154 8.154 0 0 1 2.044-1.706 9.736 9.736 0 0 0 2.496 0 8.157 8.157 0 0 1 2.045 1.706c.853 1.014 1.142.874 1.72.592l1.155-.564c.578-.282.867-.423.592-1.72a8.164 8.164 0 0 1-.091-2.61 9.684 9.684 0 0 0 1.603-2.007 8.163 8.163 0 0 1 2.575-.502c1.325-.024 1.397-.337 1.542-.964l.29-1.253c.144-.626.216-.94-.964-1.542a8.156 8.156 0 0 1-2.113-1.6 9.594 9.594 0 0 0-.552-2.435 8.153 8.153 0 0 1 1.205-2.387c.797-1.059.594-1.309.19-1.808l-.81-1c-.404-.499-.606-.749-1.808-.19a8.165 8.165 0 0 1-2.51.676 9.604 9.604 0 0 0-2.314-1.12 8.16 8.16 0 0 1-1.074-2.406c-.303-1.21-.605-1.281-1.176-1.285zm.643 7.07a5.786 5.786 0 1 1 0 11.572 5.786 5.786 0 0 1 0-11.571zm0 2.572a3.214 3.214 0 1 0 0 6.429 3.214 3.214 0 0 0 0-6.429z"/></svg>