<svg xmlns="http://www.w3.org/2000/svg" width="26" height="33" viewBox="0 0 26 33"><path fill="currentColor" d="M12.334-.072a4.6 4.6 0 0 1 1.327 0c.444.063.814.163 1.666.448l8.769 2.922a2.571 2.571 0 0 1 1.758 2.44v11.93c0 6.165-3.7 10.887-10.874 14.069l-.474.206c-.964.41-2.054.41-3.018 0C4.007 28.763.14 23.972.14 17.668V5.738c0-1.107.708-2.09 1.758-2.44l9.01-3.002c.686-.224 1.026-.31 1.426-.368zm.963 2.546a2.03 2.03 0 0 0-.6 0c-.257.036-.499.102-1.217.341L2.711 5.738v11.93c0 5.164 3.178 9.1 9.783 11.908.322.137.685.137.997.004l.455-.198c6.304-2.796 9.337-6.666 9.337-11.714V5.738l-8.97-2.99c-.44-.144-.67-.21-.86-.248zm6.652 9.014c.464.463.5 1.193.107 1.697l-.107.121-7.714 7.714c-.464.464-1.193.5-1.697.107l-.121-.107-4.179-4.178a1.286 1.286 0 0 1 1.697-1.925l.121.106 3.27 3.269 6.805-6.804a1.286 1.286 0 0 1 1.818 0z"/></svg>