<svg xmlns="http://www.w3.org/2000/svg" width="26" height="26" viewBox="0 0 26 26"><path fill="currentColor" d="M21.364 2.069v1.157A12.818 12.818 0 0 0 13.003.14C6.38.14.929 5.14.218 11.57a1.286 1.286 0 0 0 2.557.283A10.29 10.29 0 0 1 13.003 2.71c2.61 0 4.992.97 6.807 2.572h-1.662a1.286 1.286 0 1 0 0 2.571h4.502c.71 0 1.287-.575 1.287-1.285v-4.5a1.286 1.286 0 0 0-2.573 0zm1.867 12.073a10.29 10.29 0 0 1-10.228 9.14c-2.61 0-4.992-.97-6.807-2.57h1.661a1.286 1.286 0 1 0 0-2.572H3.355c-.71 0-1.286.576-1.286 1.286v4.5a1.286 1.286 0 0 0 2.573 0v-1.158a12.818 12.818 0 0 0 8.36 3.086c6.623 0 12.075-5 12.786-11.43a1.286 1.286 0 0 0-2.557-.282z"/></svg>