<svg xmlns="http://www.w3.org/2000/svg" width="14" height="14" viewBox="0 0 14 14"><g><g><path fill="currentColor" d="M7 .6c1.737 0 1.955.008 2.637.039.682.03 1.147.139 1.555.297.421.163.777.382 1.133.738s.575.713.739 1.134c.157.407.265.872.297 1.553.031.683.039.9.039 2.64 0 1.737-.008 1.955-.039 2.637-.032.682-.14 1.147-.297 1.554-.164.42-.383.778-.739 1.134a3.13 3.13 0 0 1-1.133.738c-.407.158-.872.266-1.554.298-.682.03-.9.038-2.638.038s-1.956-.007-2.639-.038c-.681-.032-1.146-.14-1.554-.298a3.133 3.133 0 0 1-1.133-.738 3.137 3.137 0 0 1-.738-1.134C.778 10.785.67 10.32.639 9.638.608 8.956.6 8.738.6 7s.008-1.956.039-2.639c.03-.681.138-1.146.297-1.553.164-.421.383-.778.739-1.134A3.134 3.134 0 0 1 2.808.936C3.215.778 3.68.67 4.362.639 5.044.608 5.262.6 7 .6zm-.574 1.152c-1.192.001-1.421.01-2.012.036-.624.028-.962.132-1.188.22a1.986 1.986 0 0 0-.736.48 1.983 1.983 0 0 0-.479.735c-.088.226-.192.565-.22 1.189-.031.674-.037.876-.037 2.585 0 1.71.006 1.912.037 2.586.028.624.132.963.22 1.188.116.3.255.512.479.736.224.224.437.363.736.479.226.087.564.192 1.188.22.675.031.878.038 2.587.038 1.708 0 1.911-.007 2.586-.038.624-.028.963-.132 1.188-.22a1.98 1.98 0 0 0 .735-.479 1.98 1.98 0 0 0 .48-.735c.087-.225.191-.564.22-1.188.03-.675.037-.877.037-2.585s-.007-1.911-.037-2.586c-.029-.624-.133-.962-.22-1.188a1.985 1.985 0 0 0-.48-.736 1.98 1.98 0 0 0-.735-.478c-.226-.088-.564-.192-1.188-.22-.675-.032-.878-.038-2.586-.038h-.575zm4.759 1.832a.768.768 0 1 1-1.537 0 .768.768 0 0 1 1.537 0zM10.287 7a3.286 3.286 0 1 1-6.572 0 3.286 3.286 0 0 1 6.572 0zm-5.42 0a2.133 2.133 0 1 0 4.267 0 2.133 2.133 0 0 0-4.267 0z"/></g></g></svg>