<svg xmlns="http://www.w3.org/2000/svg" width="150" height="24" viewBox="0 0 150 24"><g><g><g><path fill="#fff" d="M144.441 22.627a1.796 1.796 0 0 1-1.318-.513 1.881 1.881 0 0 1 0-2.576 1.789 1.789 0 0 1 1.307-.546c.5-.015.988.156 1.367.48l-.48.584a1.39 1.39 0 0 0-.909-.354.904.904 0 0 0-.705.327 1.178 1.178 0 0 0 0 1.567.973.973 0 0 0 .755.316c.257.01.51-.065.722-.213v-.496h-.772v-.65h1.51v1.518a2.224 2.224 0 0 1-1.488.545zm-6.458-3.57h.71l1.641 2.157v-2.156h.755v3.498h-.65l-1.685-2.221v2.221h-.76zm-2.477 0h.765v3.5h-.765zm-4.808 0h.706l1.64 2.157v-2.156h.755v3.498h-.65l-1.685-2.221v2.221h-.754zm-3.15 3.554a1.512 1.512 0 0 1-1.093-.388 1.6 1.6 0 0 1-.405-1.168v-1.997h.766v1.98a.954.954 0 0 0 .202.645.684.684 0 0 0 .547.218.734.734 0 0 0 .547-.207.926.926 0 0 0 .197-.633v-2.003h.765v1.975a1.581 1.581 0 0 1-.415 1.185 1.504 1.504 0 0 1-1.1.404zm-4.708-2.844h-1.055v-.71h2.882v.71h-1.061v2.79h-.766zM117 20.821a.619.619 0 0 0 .448-.153.509.509 0 0 0 .159-.388.475.475 0 0 0-.17-.393.69.69 0 0 0-.454-.136h-.59v1.091zm-1.351-1.752h1.422c.358-.018.708.103.979.338a1.158 1.158 0 0 1 .355.879 1.09 1.09 0 0 1-.416.922 1.511 1.511 0 0 1-.99.311h-.585v1.048h-.765zm-2.478 0h.766v3.498h-.765zm-4.659 0h.766v1.386h1.41v-1.386h.766v3.498h-.765v-1.403h-1.411v1.403h-.766zm-3.58 3.42a1.722 1.722 0 0 1-.581-.408 1.81 1.81 0 0 1 1.312-3.094 1.857 1.857 0 0 1 1.345.545l-.459.546a1.303 1.303 0 0 0-.891-.393.937.937 0 0 0-.728.322 1.09 1.09 0 0 0-.284.78c-.01.285.093.56.284.77a.923.923 0 0 0 .728.328c.345-.015.672-.162.913-.41l.487.546a1.85 1.85 0 0 1-1.436.606 1.725 1.725 0 0 1-.69-.138zm-5.957.138a2.146 2.146 0 0 1-1.477-.546l.454-.545c.286.26.654.41 1.04.425.333 0 .502-.114.502-.343a.282.282 0 0 0-.136-.24 2.234 2.234 0 0 0-.547-.203 2.386 2.386 0 0 1-.837-.343.883.883 0 0 1-.312-.737.943.943 0 0 1 .34-.764 1.32 1.32 0 0 1 .875-.29c.47-.008.929.148 1.296.442l-.4.584a1.642 1.642 0 0 0-.907-.349.548.548 0 0 0-.329.093.261.261 0 0 0-.114.224.29.29 0 0 0 .147.262c.193.088.394.154.602.196.294.064.572.188.815.366a.882.882 0 0 1 .29.693.98.98 0 0 1-.361.808 1.418 1.418 0 0 1-.952.256zm-4.375 0a1.512 1.512 0 0 1-1.094-.387 1.6 1.6 0 0 1-.404-1.168v-1.998h.765v1.981a.954.954 0 0 0 .197.644.7.7 0 0 0 .547.219.718.718 0 0 0 .547-.208.926.926 0 0 0 .202-.633v-2.003h.766v1.976a1.602 1.602 0 0 1-.416 1.184 1.504 1.504 0 0 1-1.132.388zm-4.922-1.834l-1.165-1.719h.886l.733 1.135.733-1.135h.87l-1.165 1.708 1.214 1.79h-.892l-.782-1.2-.787 1.2h-.87zm-5.124-1.719h2.625v.688h-1.865v.71h1.64v.682h-1.64v.731h1.887v.688h-2.647zm-3.92 0h.765v2.8h1.733v.699h-2.537zm-11.469 2.025l-.465-1.135-.459 1.135zm-.804-2.058h.706l1.487 3.52h-.842l-.317-.785h-1.471l-.317.786h-.782zm-4.003.732h-1.06v-.71h2.881v.71h-1.055v2.789h-.766zm-4.04 2.849a1.786 1.786 0 0 1-1.324-.546 1.832 1.832 0 0 1 0-2.56 1.822 1.822 0 0 1 1.329-.546 1.803 1.803 0 0 1 1.323.546 1.838 1.838 0 0 1-.618 2.977c-.232.094-.482.14-.733.134zm0-.71a.985.985 0 0 0 .754-.322 1.09 1.09 0 0 0 .29-.775 1.09 1.09 0 0 0-.64-1.022.992.992 0 0 0-.416-.08.975.975 0 0 0-.75.322 1.09 1.09 0 0 0-.294.78 1.056 1.056 0 0 0 .3.77.968.968 0 0 0 .744.333zm-4.824-.726l-1.335-2.117h.892l.831 1.402.848-1.402h.87l-1.34 2.106v1.392h-.766zm-4.047.732a1.003 1.003 0 0 0 .755-.322 1.09 1.09 0 0 0 .284-.775 1.09 1.09 0 0 0-.29-.775.995.995 0 0 0-.76-.328.964.964 0 0 0-.75.322 1.09 1.09 0 0 0-.295.78 1.09 1.09 0 0 0 .632 1.014.991.991 0 0 0 .408.084zm-.72.575a1.832 1.832 0 0 1-.604-2.971 1.927 1.927 0 0 1 2.653 0 1.757 1.757 0 0 1 .52 1.282 1.733 1.733 0 0 1-.548 1.277 1.8 1.8 0 0 1-1.314.547 1.786 1.786 0 0 1-.706-.135zm-4.076-2.715H45.59v-.71h2.882v.71h-1.055v2.79h-.766zm30.695 2.767h-.76l-.393-.365c-.301.289-.704.447-1.121.442a1.462 1.462 0 0 1-.957-.295.955.955 0 0 1-.356-.775 1.058 1.058 0 0 1 .656-.96 1.442 1.442 0 0 1-.377-.383.753.753 0 0 1-.104-.404.72.72 0 0 1 .312-.595c.254-.166.555-.246.858-.229.283-.016.563.055.804.202a.629.629 0 0 1 .296.546c0 .426-.257.72-.772.89l.7.715c.028 0 .115-.268.088-.852h.75v.251a1.636 1.636 0 0 1-.39.994l.766.764zm-1.892-2.729a.35.35 0 0 0-.388-.398.356.356 0 0 0-.263.104.345.345 0 0 0-.109.278c0 .175.142.366.432.546a.601.601 0 0 0 .3-.535zm.389 2.036l-1.067-.982a.688.688 0 0 0-.235.546.61.61 0 0 0 .197.474.683.683 0 0 0 .498.186.816.816 0 0 0 .58-.23z"/></g><g><path fill="#cf142b" d="M101.83 15.24V3.172h5.737V15.24zm12.654-12.068h5.732V15.24h-5.731v-4.689h-6.732l1.684-2.369h5.048zm8.62 0h5.736V15.24h-5.737zm-66.98 2.642v9.404h-5.737V5.814H41.5l1.892-2.664h26.19v9.405h10.286l-1.892 2.663H63.845V5.814zM82.235 9.18v.022zm0 .011c.004-.767.128-1.53.366-2.26.222-.7.56-1.36 1.001-1.948a4.235 4.235 0 0 1 3.45-1.812h13.29L98.45 5.814h-8.24a2.19 2.19 0 0 0-1.816.988 4.214 4.214 0 0 0 0 4.765 2.187 2.187 0 0 0 1.815.988h10.128l-1.887 2.663H87.054a4.245 4.245 0 0 1-3.45-1.812 6.622 6.622 0 0 1-1.002-1.949 7.432 7.432 0 0 1-.366-2.265zm64.442-5.982a3.044 3.044 0 0 1 2.379 1.092c.302.351.537.754.695 1.19a3.98 3.98 0 0 1 0 2.783 3.828 3.828 0 0 1-.695 1.19 3.045 3.045 0 0 1-2.286 1.092h-9.094l1.679-2.37h4.375a.73.73 0 0 0 .601-.327 1.394 1.394 0 0 0 0-1.566.72.72 0 0 0-.601-.328h-6.267v9.28h-5.737V3.176z"/></g><g><path fill="#cf142b" d="M19.875 23.778C9.173 23.778.5 18.582.5 12.174.5 5.766 9.173.57 19.875.57c10.703 0 19.376 5.19 19.376 11.604 0 6.414-8.673 11.604-19.376 11.604zm-6.808-12.09c1.455-2.701 2.27-4.11-.946-4.11H5.24a7.507 7.507 0 0 0-1.64 4.596c0 2.991 1.963 5.693 5.113 7.598zm23.083.486c0-5.77-7.284-10.447-16.275-10.447A21.874 21.874 0 0 0 8.72 4.565h8.362c3.363 0 4.676 1.807 2.784 5.317l-3.418 6.342-1.914 3.553H8.725a21.836 21.836 0 0 0 11.15 2.839c8.99 0 16.275-4.672 16.275-10.442z"/></g><g><path fill="#fff" d="M25.221 4.57h5.824l-4.375 8.095c-1.454 2.696-2.27 4.11.947 4.11h6.88a12.375 12.375 0 0 1-3.468 3.007h-8.345c-3.363 0-4.676-1.807-2.784-5.316l3.418-6.343z"/></g></g></g></svg>