<svg width="1001" height="165" viewBox="0 0 1001 165" fill="none" xmlns="http://www.w3.org/2000/svg">
<path fill-rule="evenodd" clip-rule="evenodd" d="M118.985 156.466C105.753 148.178 96.0051 119.576 96.0051 85.593C96.0051 84.346 96.0131 83.117 96.0411 81.888L96.0571 81.906C59.2541 76.122 32.6631 60.276 31.9821 41.538L31.8741 41.754C22.8691 52.945 17.7291 65.884 17.7291 79.671C17.7291 120.24 62.2621 153.481 118.747 156.421L118.985 156.466ZM0.714111 82.631C0.714111 37.237 57.2041 0.432007 126.893 0.432007C196.58 0.432007 253.072 37.237 253.072 82.631C253.072 128.025 196.579 164.831 126.893 164.831C57.2041 164.831 0.714111 128.024 0.714111 82.631ZM126.893 12.295C140.346 12.295 151.789 32.702 156.028 61.176L156.044 61.133C182.216 57.059 200.541 47.661 200.541 36.725C200.541 22.047 167.564 10.162 126.893 10.162C86.2191 10.162 53.2451 22.048 53.2451 36.725C53.2451 47.661 71.5671 57.059 97.7421 61.133L97.7581 61.176C101.997 32.703 113.443 12.295 126.893 12.295ZM135.037 156.42C191.522 153.481 236.061 120.239 236.061 79.67C236.061 65.884 230.915 52.945 221.911 41.753L221.801 41.537C221.12 60.275 194.536 76.121 157.729 81.905L157.745 81.887C157.77 83.116 157.783 84.345 157.783 85.592C157.783 119.575 148.028 148.177 134.804 156.465L135.037 156.42ZM126.893 63.292C132.92 63.292 138.779 63.035 144.385 62.541L144.377 62.55C141.587 44.297 134.811 31.415 126.893 31.415C118.975 31.415 112.2 44.297 109.406 62.55L109.399 62.541C115.005 63.035 120.866 63.292 126.893 63.292ZM126.893 130.886C137.021 130.886 145.283 109.809 145.724 83.373L145.778 83.392C139.673 83.957 133.358 84.252 126.894 84.252C120.424 84.252 114.115 83.957 108.01 83.392L108.067 83.373C108.501 109.808 116.761 130.886 126.893 130.886Z" fill="currentColor"/>
<path fill-rule="evenodd" clip-rule="evenodd" d="M644.563 82.631C644.563 47.935 672.696 19.807 707.384 19.807C742.09 19.807 770.219 47.934 770.219 82.631C770.219 117.331 742.09 145.455 707.384 145.455C672.696 145.455 644.563 117.331 644.563 82.631ZM707.384 122.418C726.763 122.418 742.471 104.603 742.471 82.631C742.471 60.66 726.763 42.843 707.384 42.843C688.019 42.843 672.314 60.66 672.314 82.631C672.314 104.602 688.019 122.418 707.384 122.418Z" fill="currentColor"/>
<path fill-rule="evenodd" clip-rule="evenodd" d="M841.502 45.983V142.603H815.033V45.983H815.12H778.102V24.139H878.427V45.983H841.589H841.502Z" fill="currentColor"/>
<path fill-rule="evenodd" clip-rule="evenodd" d="M910.45 115.949L910.424 115.974L900.27 142.603H869.358L918.231 24.138H934.71H951.173L1000.05 142.603H969.133L958.978 115.974L958.953 115.949H934.711H910.45V115.949ZM934.709 95.955H951.362L951.352 95.96L934.822 52.601H934.59L918.05 95.96L918.044 95.955H934.709Z" fill="currentColor"/>
<path fill-rule="evenodd" clip-rule="evenodd" d="M353.558 45.983V142.603H327.087V45.983H327.177H290.156V24.139H390.485V45.983H353.65H353.558Z" fill="currentColor"/>
<path fill-rule="evenodd" clip-rule="evenodd" d="M397.255 82.631C397.255 47.935 425.387 19.807 460.087 19.807C494.785 19.807 522.914 47.934 522.914 82.631C522.914 117.331 494.785 145.455 460.087 145.455C425.387 145.455 397.255 117.331 397.255 82.631ZM460.087 122.418C479.456 122.418 495.165 104.603 495.165 82.631C495.165 60.66 479.457 42.843 460.087 42.843C440.715 42.843 425.006 60.66 425.006 82.631C425.006 104.602 440.715 122.418 460.087 122.418Z" fill="currentColor"/>
<path fill-rule="evenodd" clip-rule="evenodd" d="M583.738 142.603H597.16V98.174V97.62L643.339 24.139H612.432L583.738 73.932L555.048 24.139H524.131L570.315 97.62V98.174V142.603H583.738Z" fill="currentColor"/>
</svg>
