<svg xmlns="http://www.w3.org/2000/svg" width="12" height="12" viewBox="0 0 12 12"><g><g><path fill="currentColor" d="M7.84 0C11.2 0 12 .8 12 4.16v3.68C12 11.2 11.2 12 7.84 12H4.16C.8 12 0 11.2 0 7.84V4.16C0 .8.8 0 4.16 0zm1.988 4.134c.056-.185 0-.322-.265-.322h-.875a.378.378 0 0 0-.38.248s-.445 1.085-1.076 1.789c-.204.204-.296.269-.408.269-.055 0-.136-.065-.136-.25V4.134c0-.222-.064-.322-.25-.322H5.063c-.139 0-.222.104-.222.202 0 .21.315.26.347.852v1.289c0 .282-.05.334-.162.334-.296 0-1.018-1.09-1.446-2.336-.084-.243-.168-.34-.392-.34h-.875c-.25 0-.3.117-.3.247 0 .232.297 1.381 1.382 2.901C4.118 8 5.136 8.563 6.063 8.563c.557 0 .625-.126.625-.34v-.785c0-.25.053-.3.23-.3.129 0 .351.064.87.565.594.593.692.86 1.025.86h.875c.25 0 .375-.126.303-.372-.079-.246-.362-.603-.738-1.026-.204-.24-.51-.5-.602-.63-.13-.167-.093-.24 0-.39 0 0 1.066-1.501 1.177-2.01z"/></g></g></svg>